<?xml version="1.0" encoding="utf-8"?>
<!-- Generator: Adobe Illustrator 25.4.1, SVG Export Plug-In . SVG Version: 6.00 Build 0)  -->
<svg version="1.1" id="Layer_1" xmlns="http://www.w3.org/2000/svg" xmlns:xlink="http://www.w3.org/1999/xlink" x="0px" y="0px"
	 viewBox="0 0 872.9 747" style="enable-background:new 0 0 872.9 747;" xml:space="preserve">
<style type="text/css">
	.st0{fill:#3F3D56;}
	.st1{opacity:0.3;fill:#F0F0F0;enable-background:new    ;}
	.st2{fill:#F2F2F2;}
	.st3{fill:#FFFFFF;}
	.st4{fill:#E4E4E4;}
	.st5{fill:#160CA1;}
	.st6{fill:#F0F0F0;}
	.st7{fill:#FF6584;}
	.st8{fill:#2F2E41;}
	.st9{fill:#E6E6E6;}
</style>
<path class="st0" d="M139.2,541.8c-17.2-39.7-20.5-85.2-13.3-128.2c0.3-1.8,0.6-3.6,1-5.4c0.8-4,1.6-8,2.5-12
	c1.1-4.9,2.4-9.8,3.8-14.6c1.1-4,2.3-7.9,3.6-11.8c1-3,2-6.1,3.1-9.1c12.8-36.1,31.4-70.3,52.2-102.6
	c40.6-63.1,90.8-121.4,154.8-160.5c64-39.1,142.9-57.4,215.5-38.6c97.8,25.3,170.6,116.5,190,215.6c13,66,4.7,136.4-26.1,196.2
	c-30.5,59.2-83.5,107.1-146.6,128.7c-31,53-91.1,86.2-152.4,92.5c-32.7,3.4-65.7-0.1-97.5-8.6c-14.6-3.9-28.9-8.8-42.8-14.6
	c-1.4-0.6-2.8-1.2-4.2-1.8c-5.9-2.5-11.7-5.2-17.5-8.1c-8.3-4.1-16.4-8.4-24.3-13c-2.2-1.3-4.4-2.6-6.5-3.9
	c-1.5-0.9-2.9-1.8-4.4-2.7c0,0-0.1,0-0.1-0.1c-22.8-14.3-44.3-31.1-61.7-51.3c-3.1-3.6-6-7.3-8.8-11.1l0,0c-2.4-3.2-4.7-6.5-6.8-9.9
	C147.4,558.8,142.9,550.5,139.2,541.8z"/>
<path class="st1" d="M280,391.5l189.4,38.2l-188.1-44.5c-1.6-1-3.7-0.4-4.7,1.2c-1,1.6-0.4,3.7,1.2,4.7
	C278.5,391.5,279.3,391.6,280,391.5z"/>
<ellipse transform="matrix(0.7071 -0.7071 0.7071 0.7071 -65.9428 567.2568)" class="st2" cx="651.8" cy="363.2" rx="89" ry="89"/>
<path class="st3" d="M585.1,406.1c-21.3-39.3-6.6-88.5,32.7-109.8c0,0,0,0,0,0c8.3-4.5,17.4-7.5,26.8-8.9
	c44.3-6.5,85.5,24.1,92,68.4c6.5,44.3-24.1,85.5-68.4,92C634.6,452.7,601.3,436.1,585.1,406.1L585.1,406.1z"/>
<circle class="st4" cx="681.5" cy="384.6" r="25"/>
<path class="st2" d="M598.6,424.3c8.1-11.2,23.7-13.7,34.9-5.6c9,6.5,12.6,18.1,8.9,28.6C625.8,444.4,610.5,436.4,598.6,424.3z"/>
<circle class="st4" cx="619.8" cy="356.6" r="9"/>
<path class="st2" d="M628.1,294.2c-0.4-0.7-0.7-1.4-0.8-2.2c5.6-2.2,11.4-3.7,17.4-4.6c1.4,4.8-1.4,9.8-6.1,11.2
	C634.4,299.7,630.1,297.9,628.1,294.2z"/>
<path class="st2" d="M713.7,341.1c-4.5-8.3-1.8-18.7,6.2-23.8c7.5,9.5,12.7,20.5,15.4,32.2C727.1,352.4,717.9,348.8,713.7,341.1z"/>
<ellipse transform="matrix(0.8796 -0.4757 0.4757 0.8796 -235.4473 230.9833)" class="st5" cx="338.6" cy="580.7" rx="3.7" ry="3.7"/>
<ellipse transform="matrix(0.8796 -0.4757 0.4757 0.8796 -256.0769 272.727)" class="st6" cx="410.8" cy="642.3" rx="2.2" ry="2.2"/>
<ellipse transform="matrix(0.8796 -0.4757 0.4757 0.8796 12.3169 257.207)" class="st6" cx="514.3" cy="104.3" rx="2.2" ry="2.2"/>
<ellipse transform="matrix(0.8796 -0.4757 0.4757 0.8796 -183.7187 197.9896)" class="st6" cx="299.3" cy="462" rx="2.2" ry="2.2"/>
<circle class="st5" cx="535.8" cy="312.6" r="3.7"/>
<ellipse transform="matrix(0.8796 -0.4757 0.4757 0.8796 -15.8319 318.9942)" class="st5" cx="622.3" cy="190.8" rx="17.5" ry="17.5"/>
<circle class="st6" cx="528.7" cy="219.2" r="2.2"/>
<ellipse transform="matrix(0.8796 -0.4757 0.4757 0.8796 -235.7877 310.733)" class="st6" cx="496" cy="621.2" rx="2.2" ry="2.2"/>
<ellipse transform="matrix(0.8796 -0.4757 0.4757 0.8796 -26.4447 204.1907)" class="st6" cx="390.2" cy="154.3" rx="2.2" ry="2.2"/>
<ellipse transform="matrix(0.8796 -0.4757 0.4757 0.8796 -175.0849 362.2357)" class="st6" cx="628.1" cy="527" rx="2.2" ry="2.2"/>
<ellipse transform="matrix(0.8796 -0.4757 0.4757 0.8796 -155.7652 307.1329)" class="st6" cx="528.9" cy="461.3" rx="2.2" ry="2.2"/>
<circle class="st6" cx="481.8" cy="193.9" r="2.2"/>
<ellipse transform="matrix(0.8796 -0.4757 0.4757 0.8796 -113.2243 156.486)" class="st6" cx="252.6" cy="301.9" rx="2.2" ry="2.2"/>
<circle class="st6" cx="411" cy="359.5" r="2.2"/>
<ellipse transform="matrix(0.8796 -0.4757 0.4757 0.8796 -193.1892 266.7004)" class="st6" cx="430.3" cy="515" rx="2.2" ry="2.2"/>
<circle class="st7" cx="305.8" cy="502.7" r="4.3"/>
<ellipse transform="matrix(0.8796 -0.4757 0.4757 0.8796 -195.7957 316.0109)" class="st7" cx="526.4" cy="544.8" rx="4.3" ry="4.3"/>
<circle class="st7" cx="386.1" cy="285.3" r="4.3"/>
<path class="st5" d="M139.3,390.7c3-1.6,4.6-5.1,3.8-8.4c-0.1-0.7-0.4-1.4-0.7-2l-5.7-10.6c-1.3,3.9-2.5,7.9-3.6,11.8
	c-1.4,4.8-2.6,9.7-3.8,14.6L139.3,390.7z"/>
<path class="st5" d="M85.6,348.6c11.4-6.1,24-12.4,38-18.9c72.4-33.4,171.5-67,279-94.6c107.5-27.6,210.5-45.8,290-51.4
	c38.8-2.7,69.9-2.3,92.5,1.3c23.9,3.8,37.4,11.1,40.2,21.7c5.3,20.6-32.7,46.2-65.4,64.1l-1.4-2.6c45-24.6,67.7-46.2,64-60.8
	c-4.8-18.6-52-26.2-129.5-20.7c-79.4,5.6-182.2,23.8-289.5,51.3c-107.3,27.5-206.2,61.1-278.5,94.4C54.3,365,16.6,394.4,21.3,413
	c4,15.5,37.2,23.4,93.6,22.4l0.1,3c-41,0.7-91-2.9-96.6-24.6c-2.7-10.6,5.6-23.5,24.8-38.3C54.1,366.9,68.3,358,85.6,348.6z"/>
<circle class="st3" cx="243.4" cy="631.8" r="100.5"/>
<path class="st8" d="M291.9,721.6c49.6-26.8,68-88.7,41.2-138.2c-26.8-49.6-88.7-68-138.2-41.2c-49.6,26.8-68,88.7-41.2,138.2
	c26.5,49.5,88.1,68.1,137.6,41.5C291.5,721.8,291.7,721.7,291.9,721.6z M196.3,544.8c48.1-26,108.2-8.1,134.2,40
	c26,48.1,8.1,108.2-40,134.2c-48.1,26-108.2,8.1-134.2-40l0,0c-26.1-47.8-8.5-107.7,39.3-133.8C195.8,545,196.1,544.9,196.3,544.8z"
	/>
<path class="st8" d="M309.5,568.7c0.8-0.5,1.9-0.3,2.5,0.5c19.2,23.3,26.6,54.3,19.9,83.8c-0.3,1.1-1.3,1.7-2.4,1.5
	c-1.1-0.3-1.7-1.3-1.5-2.4c6.4-28.3-0.6-57.9-19.1-80.3c-0.7-0.8-0.6-2.1,0.2-2.8C309.3,568.8,309.4,568.8,309.5,568.7L309.5,568.7z
	"/>
<ellipse transform="matrix(0.7071 -0.7071 0.7071 0.7071 -361.2176 339.6631)" class="st5" cx="229.4" cy="605.9" rx="63.9" ry="63.9"/>
<path class="st8" d="M235.8,575c3.7-1.9,8.3-4.2,13.2-3.5c3,0.5,5.6,2.2,7.1,4.8c1.1,1.8,1.4,4.1,0.6,6.1c-1,2.5-3.5,4.3-6.8,5
	l14.7,20.1l-2,1.5l-17.3-23.7l2.3-0.1c2.6-0.2,5.8-1.2,6.8-3.7c0.5-1.3,0.3-2.7-0.5-3.9c-1.2-1.9-3.1-3.2-5.3-3.6
	c-3.8-0.5-7.5,1.2-11.7,3.3L235.8,575z"/>
<rect x="273" y="594.2" transform="matrix(0.8796 -0.4757 0.4757 0.8796 -249.561 204.7748)" class="st8" width="13.5" height="2.5"/>
<rect x="235.6" y="614.4" transform="matrix(0.8796 -0.4757 0.4757 0.8796 -263.7065 189.3951)" class="st8" width="13.5" height="2.5"/>
<path class="st8" d="M189.1,537.1l50.9-27.5c4-2.1,5.4-7.1,3.3-11l-61-112.9c-8.4-15.6-24.8-25.2-42.6-25c-1.1,3-2.1,6-3.1,9.1
	c-1.3,3.9-2.5,7.9-3.6,11.8c-1.4,4.8-2.6,9.7-3.8,14.6c-0.9,4-1.8,8-2.5,12c-0.3,1.8-0.7,3.6-1,5.4c-7.2,43-3.9,88.6,13.3,128.2
	C155.8,547.1,173.8,545.4,189.1,537.1z"/>
<path class="st5" d="M174.5,514.5c3.7,1.1,7.8,0.6,11.2-1.3c2.9-1.6,5.2-4.2,6.5-7.3c0.2-0.5,0.4-1,0.5-1.5l18.6-65.3l13.5-47.4
	c0.2-0.7,0.3-1.5,0.3-2.2c0-1.2-0.3-2.3-0.9-3.3c-0.9-1.7-2.5-2.9-4.3-3.4l-1.8-0.5l-13.2-3.7l0,0c-1.7-0.3-3.4,0-4.9,0.8
	c-1.7,0.9-2.9,2.5-3.4,4.3l-0.6,2.2l-4.5,15.7l-0.1,0.5l-26.8,94.3C162.2,504.2,166.7,512.3,174.5,514.5L174.5,514.5z"/>
<path class="st8" d="M239.8,634.1c0.3,4.9,4.4,8.1,9.1,8.8c5.8,0.9,10.9-2.5,14.7-6.5c4.2-4.4,7.6-10.1,13.3-12.9
	c4.1-2.1,9-1.5,12.5,1.5c7.1,6,8.3,16.3,6.3,24.9c-2.3,9.9-8.8,18.2-17.8,22.8c-10.5,5-22.8,4.4-32.7-1.5c-0.7-0.4-1.6-0.2-2.1,0.5
	c-6,7.8-14.9,12.9-24.6,14.1c-15,1.6-29.4-6.2-36.3-19.6c-0.9-1.7-3.5-0.3-2.6,1.4c4.7,9.1,12.8,16.1,22.6,19.4
	c9.9,3.3,20.8,2.4,30-2.4c5.3-2.7,9.9-6.6,13.5-11.4l-2.1,0.5c9.2,5.5,20.3,6.8,30.5,3.7c10.1-3.2,18.2-10.7,22.4-20.4
	c3.9-9,4.6-20-0.5-28.6c-2.2-3.7-5.5-7-9.6-8.5c-5.4-1.8-10.8,0.3-15,3.8c-5.6,4.6-9,11.8-15.6,15.2c-2.6,1.4-5.6,1.6-8.4,0.6
	c-2.3-0.8-4.4-2.7-4.6-5.3C242.7,632.3,239.7,632.2,239.8,634.1L239.8,634.1z"/>
<path class="st5" d="M489.2,88.9c31.3-16.9,61-31.6,88.2-43.5c35.6-15.6,65.1-25.6,87.6-29.8c23.8-4.5,39-2.1,45.1,6.9
	c11.9,17.6-15.2,54.5-40.1,82.4l-2.2-2c34.1-38.3,48.3-66.2,39.8-78.7c-10.8-15.9-57.8-7.2-129,24
	c-72.9,31.9-163.6,83.6-255.4,145.6c-91.8,62-173.7,126.8-230.5,182.5C37.2,430.7,11.5,471,22.2,486.9c8.9,13.2,42.9,9.5,95.7-10.4
	l1.1,2.8c-38.3,14.5-86.7,27.8-99.2,9.3c-6.1-9-2.6-24,10.5-44.4c12.3-19.3,32.6-42.9,60.4-70.1c57-55.8,139-120.7,231-182.8
	C379.3,152.4,436.5,117.4,489.2,88.9z"/>
<ellipse transform="matrix(0.8796 -0.4757 0.4757 0.8796 -230.89 72.1242)" class="st5" cx="27" cy="492.2" rx="17.5" ry="17.5"/>
<ellipse transform="matrix(0.8796 -0.4757 0.4757 0.8796 -213.0806 393.746)" class="st9" cx="671.4" cy="617.9" rx="17.5" ry="17.5"/>
<ellipse transform="matrix(0.8796 -0.4757 0.4757 0.8796 40.7979 368.243)" class="st9" cx="747.9" cy="103.5" rx="17.5" ry="17.5"/>
<circle class="st7" cx="807.5" cy="440.8" r="10.7"/>
<ellipse transform="matrix(0.8796 -0.4757 0.4757 0.8796 50.7855 320.39)" class="st7" cx="658.4" cy="59.9" rx="10.7" ry="10.7"/>
<circle class="st7" cx="99.5" cy="561" r="10.7"/>
<circle class="st9" cx="118.8" cy="256.2" r="17.5"/>
</svg>
